<svg xmlns="http://www.w3.org/2000/svg" viewBox="0 0 215.81 170.38"><defs><style>.cls-1{fill:#fff;}</style></defs><g id="Layer_2" data-name="Layer 2"><g id="Layer_1-2" data-name="Layer 1"><path class="cls-1" d="M57.68,107.08V59.36a1.69,1.69,0,0,1,1.68-1.68H214.13a1.68,1.68,0,0,0,1.19-2.86L161.4.5a1.69,1.69,0,0,0-1.19-.5H1.68A1.68,1.68,0,0,0,0,1.68V52.75a1.68,1.68,0,0,0,.49,1.18l54.33,54.34A1.68,1.68,0,0,0,57.68,107.08Z"/><path class="cls-1" d="M215.32,116.45,161,62.11a1.68,1.68,0,0,0-2.87,1.19V111a1.68,1.68,0,0,1-1.67,1.68H1.68a1.68,1.68,0,0,0-1.19,2.86l53.92,54.32a1.69,1.69,0,0,0,1.19.5H214.13a1.68,1.68,0,0,0,1.68-1.68V117.63A1.68,1.68,0,0,0,215.32,116.45Z"/><path class="cls-1" d="M208.43,13.23l-2.12-3h-.92v3h-1.68V5h3.52a2.8,2.8,0,0,1,2.05.72,2.58,2.58,0,0,1,.75,2,2.54,2.54,0,0,1-.48,1.6,2.41,2.41,0,0,1-1.36.84l2.29,3.08Zm-3-6.6V8.82h1.66a1.41,1.41,0,0,0,1-.29,1,1,0,0,0,.32-.8,1,1,0,0,0-.33-.81,1.38,1.38,0,0,0-.95-.29Z"/><path class="cls-1" d="M206.78,18.27a9.24,9.24,0,0,1-9.24-9.14,9.14,9.14,0,1,1,9.24,9.14Zm-.1-15.8a6.67,6.67,0,1,0,6.66,6.66A6.67,6.67,0,0,0,206.68,2.47Z"/></g></g></svg>